<svg width="547" height="125" viewBox="0 0 547 125" fill="none" xmlns="http://www.w3.org/2000/svg">
<path d="M139.262 18.1147C140.436 18.1147 141.317 18.4082 141.904 18.9952C142.491 19.4843 143.078 19.9734 143.665 20.4625C144.154 20.3647 144.398 20.4625 144.398 20.756C144.496 21.0495 144.594 21.2941 144.692 21.4897C144.887 21.6854 145.132 21.8321 145.425 21.9299C145.719 22.0277 145.963 22.1745 146.159 22.3701C146.159 22.468 146.11 22.6147 146.012 22.8103C145.914 22.9082 145.914 23.006 146.012 23.1038C146.012 23.1038 146.159 23.1038 146.453 23.1038C146.844 23.593 147.137 24.2777 147.333 25.1582C147.626 25.9408 147.871 26.7234 148.067 27.506C148.164 28.0929 148.311 28.9244 148.507 30.0005C148.703 31.0766 148.898 32.1038 149.094 33.082C149.192 34.0603 149.241 35.0385 149.241 36.0168C149.241 36.9951 149.289 37.9244 149.387 38.8048C149.485 39.0005 149.583 39.1961 149.681 39.3918C149.779 39.4896 149.828 39.6853 149.828 39.9787C150.121 44.9678 149.632 50.2993 148.36 55.9732C147.088 61.6471 145.719 66.7829 144.251 71.3807C143.958 72.0655 143.713 72.7503 143.518 73.4351C143.322 74.1199 143.126 74.8536 142.931 75.6362C142.735 76.1253 142.54 76.6144 142.344 77.1035C142.246 77.4948 142.099 77.9351 141.904 78.4242C141.806 78.522 141.757 78.6688 141.757 78.8644C141.757 79.0601 141.757 79.2068 141.757 79.3046C141.561 79.5003 141.219 80.1851 140.73 81.359C139.849 82.5329 139.262 83.7557 138.969 85.0274C138.675 85.7122 138.382 86.397 138.088 87.0818C137.893 87.7665 137.599 88.4024 137.208 88.9894C137.208 89.3807 137.208 89.5763 137.208 89.5763H136.915H136.768C136.768 89.6741 136.768 89.8209 136.768 90.0165C136.768 90.2122 136.719 90.3589 136.621 90.4567C136.328 90.6524 135.936 91.1904 135.447 92.0709C135.056 92.9513 134.762 93.6361 134.567 94.1252C134.273 94.9078 133.784 95.8861 133.099 97.06C132.512 98.2339 131.828 99.4567 131.045 100.728C130.36 101.902 129.627 103.027 128.844 104.103C128.061 105.082 127.425 105.815 126.936 106.304C126.839 106.402 126.692 106.451 126.496 106.451C126.398 106.451 126.252 106.5 126.056 106.598C125.958 106.696 125.86 106.843 125.762 107.038C125.762 107.136 125.665 107.234 125.469 107.332C125.371 107.332 125.224 107.332 125.029 107.332C124.833 107.234 124.637 107.234 124.442 107.332V107.772H124.002H123.708C123.61 107.968 123.366 108.114 122.974 108.212C122.681 108.31 122.387 108.408 122.094 108.506C121.898 108.506 121.556 108.554 121.067 108.652C120.969 108.652 120.822 108.652 120.627 108.652C120.431 108.554 120.284 108.554 120.186 108.652C119.991 108.946 119.257 109.044 117.985 108.946C117.887 108.946 117.839 108.897 117.839 108.799C117.741 108.799 117.692 108.799 117.692 108.799C117.692 108.701 117.643 108.652 117.545 108.652H117.105C115.051 107.87 113.387 107.478 112.116 107.478C110.942 107.478 109.866 107.429 108.888 107.332C108.007 107.136 107.127 106.647 106.246 105.864C105.366 105.082 104.29 103.516 103.018 101.169C101.257 98.723 100.23 95.6415 99.9365 91.9241C99.643 88.2068 99.7408 84.2937 100.23 80.1851C100.719 75.9786 101.453 71.821 102.431 67.7123C103.409 63.5058 104.388 59.7884 105.366 56.5602C106.735 52.6472 108.252 48.6852 109.915 44.6744C111.676 40.5657 113.339 36.9461 114.904 33.8157C115.686 32.1527 116.616 30.5386 117.692 28.9734C118.866 27.3103 119.991 25.6473 121.067 23.9843C121.262 23.7886 121.458 23.593 121.654 23.3973C121.849 23.1038 122.045 22.8593 122.241 22.6636C122.534 22.468 122.779 22.2234 122.974 21.9299C123.072 21.8321 123.072 21.6854 122.974 21.4897C122.974 21.2941 123.023 21.0984 123.121 20.9028C123.219 20.8049 123.366 20.756 123.561 20.756C123.757 20.6582 123.904 20.5604 124.002 20.4625C124.099 20.2669 124.197 20.0712 124.295 19.8756C124.393 19.6799 124.54 19.4843 124.735 19.2886C124.931 19.093 125.224 18.8484 125.616 18.5549C126.105 18.2615 126.545 17.968 126.936 17.6745C127.23 17.381 127.572 17.0386 127.963 16.6473C128.453 16.256 128.795 15.9626 128.991 15.7669C129.088 15.6691 129.235 15.6691 129.431 15.7669C129.627 15.8647 129.773 15.8647 129.871 15.7669C129.969 15.6691 130.067 15.5223 130.165 15.3267C130.36 15.0332 130.507 14.8865 130.605 14.8865C131.192 14.6908 131.925 14.6908 132.806 14.8865C133.784 14.9843 134.518 15.131 135.007 15.3267C136.083 15.5223 136.963 15.8647 137.648 16.3539C138.431 16.7452 138.969 17.3321 139.262 18.1147ZM145.719 26.6255C145.425 26.5277 145.328 26.1853 145.425 25.5984C145.034 25.794 144.887 25.9408 144.985 26.0386C144.79 26.4299 144.887 26.6255 145.279 26.6255C144.985 27.3103 144.985 27.6527 145.279 27.6527C145.67 27.6527 145.817 27.3103 145.719 26.6255ZM133.54 33.082C132.659 38.2668 132.219 42.9135 132.219 47.0222C132.219 48.783 132.268 50.7396 132.366 52.8917C132.463 55.0439 132.61 56.658 132.806 57.7341C133.002 58.5167 133.344 59.2015 133.833 59.7884C134.42 60.3754 135.105 60.6689 135.887 60.6689C136.572 58.1254 137.355 55.4841 138.235 52.745C139.116 50.0059 139.849 47.2178 140.436 44.3809C140.925 40.957 141.17 37.582 141.17 34.2559C141.268 30.9299 141.17 27.7016 140.876 24.5712C140.876 24.1799 140.73 23.9843 140.436 23.9843C140.436 23.8864 140.045 23.544 139.262 22.9571C138.578 22.3701 138.088 22.1256 137.795 22.2234C137.404 22.8103 136.963 23.544 136.474 24.4245C136.083 25.3049 135.692 26.2342 135.3 27.2125C134.909 28.0929 134.518 28.9734 134.127 29.8538C133.833 30.7342 133.637 31.419 133.54 31.9081V33.082ZM114.61 102.343C115.002 102.343 115.442 102.196 115.931 101.902C116.42 101.511 116.86 101.071 117.252 100.582C117.643 100.093 117.985 99.6523 118.279 99.261C118.572 98.7719 118.719 98.4784 118.719 98.3806C118.719 97.9893 118.768 97.8426 118.866 97.9404C118.964 97.9404 119.11 97.8915 119.306 97.7937C119.502 97.5002 119.599 97.2067 119.599 96.9132C119.697 96.5219 119.844 96.1306 120.04 95.7393H120.186H120.48C120.675 95.6415 120.724 95.4948 120.627 95.2991C120.529 95.1035 120.578 94.9567 120.773 94.8589H120.92H121.067C121.262 94.7611 121.36 94.5165 121.36 94.1252C121.458 93.6361 121.556 93.3426 121.654 93.2448C122.241 92.6578 122.681 91.973 122.974 91.1904C123.268 90.31 123.512 89.723 123.708 89.4296C124.393 88.647 124.931 87.7665 125.322 86.7883C125.714 85.81 126.056 85.0274 126.349 84.4405C127.034 83.1687 127.572 82.2883 127.963 81.7992C128.257 81.2122 128.453 80.6253 128.55 80.0383C128.746 79.4514 128.991 78.8155 129.284 78.1307C129.773 76.6633 130.311 75.2938 130.898 74.022C131.583 72.6525 132.219 71.2829 132.806 69.9134C132.61 69.3264 132.17 69.0329 131.485 69.0329C130.898 69.0329 130.605 68.7884 130.605 68.2992C128.942 66.3427 127.572 63.7993 126.496 60.6689C125.42 57.4406 124.833 54.1634 124.735 50.8374C124.931 50.6417 124.784 50.5439 124.295 50.5439C121.654 57.783 119.55 65.9025 117.985 74.9025C116.42 83.8046 115.295 92.9513 114.61 102.343ZM115.491 70.5003C115.295 71.5764 115.148 72.3101 115.051 72.7014C114.953 73.0927 114.806 73.5818 114.61 74.1688C114.121 76.1253 113.681 78.2285 113.29 80.4785C112.898 82.7285 112.556 85.0274 112.262 87.3752C111.969 89.723 111.773 92.0219 111.676 94.2719C111.676 96.4241 111.773 98.3806 111.969 100.141C111.969 100.533 111.871 101.022 111.676 101.609C111.578 102.196 111.871 102.538 112.556 102.636C112.36 93.9295 113.094 85.4187 114.757 77.1035C116.518 68.7884 118.572 61.0112 120.92 53.7721C120.92 53.4787 120.773 53.3808 120.48 53.4787C120.284 53.5765 120.235 53.87 120.333 54.3591C119.453 56.9026 118.523 59.6906 117.545 62.7232C116.665 65.658 115.98 68.2503 115.491 70.5003ZM214.974 6.22891C215.463 7.79412 215.609 9.40824 215.414 11.0713C215.218 12.7343 214.778 14.3484 214.093 15.9136C212.235 15.4245 210.376 15.3267 208.517 15.6202C206.658 15.9136 204.849 16.1582 203.088 16.3539C199.37 16.6473 195.409 17.0876 191.202 17.6745C186.996 18.1636 183.034 18.7017 179.316 19.2886C178.436 23.006 177.506 26.7234 176.528 30.4407C175.648 34.1581 174.816 38.0711 174.034 42.1798C177.751 41.6907 181.419 41.3483 185.039 41.1526C188.659 40.957 192.523 40.7613 196.631 40.5657C196.631 41.0548 196.778 41.3483 197.072 41.4461C197.365 41.4461 197.61 41.6907 197.805 42.1798C197.903 42.3755 197.903 42.7179 197.805 43.207C197.805 43.6961 198.05 43.8428 198.539 43.6472C198.539 44.9189 198.343 45.8972 197.952 46.582C197.952 46.7776 197.12 47.0222 195.457 47.3157C193.794 47.6091 191.985 47.9515 190.028 48.3428C188.169 48.6363 186.409 48.9298 184.746 49.2233C183.082 49.5167 182.251 49.7124 182.251 49.8102C182.349 50.0059 183.229 50.0548 184.892 49.9569C186.555 49.7613 188.365 49.5656 190.322 49.37C192.376 49.1743 194.235 49.0276 195.898 48.9298C197.561 48.832 198.441 48.832 198.539 48.9298C198.832 49.2233 198.93 49.7613 198.832 50.5439C194.724 51.3265 190.224 52.0113 185.332 52.5982C180.441 53.0874 175.501 54.0656 170.512 55.533C169.827 58.0765 168.996 61.6471 168.017 66.2449C167.137 70.8427 166.208 75.6851 165.229 80.772C164.349 85.7611 163.468 90.6035 162.588 95.2991C161.805 99.9947 161.17 103.712 160.68 106.451C160.191 108.212 159.751 109.875 159.36 111.44C158.968 113.006 158.675 114.766 158.479 116.723C158.284 117.897 158.235 119.12 158.333 120.391C158.528 121.663 158.382 122.886 157.892 124.06C157.11 124.06 156.327 124.011 155.545 123.913C154.86 123.913 154.224 123.815 153.637 123.62C153.05 123.326 152.561 122.984 152.17 122.592C151.778 122.299 151.534 121.761 151.436 120.978C150.653 121.174 150.066 121.516 149.675 122.005C149.284 122.592 148.648 122.788 147.767 122.592C147.572 122.397 147.425 122.201 147.327 122.005C147.132 121.908 146.936 121.81 146.74 121.712C146.545 121.516 146.349 121.37 146.153 121.272C145.958 121.272 145.811 121.174 145.713 120.978C145.126 120.196 144.686 119.169 144.392 117.897C144.392 117.799 144.441 117.652 144.539 117.457C144.637 117.261 144.637 117.114 144.539 117.016H144.246H143.952C143.757 114.864 143.806 112.467 144.099 109.826C144.392 107.185 144.735 104.886 145.126 102.93L145.566 98.9676L145.713 98.8208C145.811 98.723 145.909 98.5763 146.007 98.3806C146.007 98.185 146.007 97.9404 146.007 97.6469C145.909 97.3534 145.909 97.1578 146.007 97.06C146.202 95.9839 146.496 94.3698 146.887 92.2176C147.18 89.9676 147.572 87.4731 148.061 84.7339C148.55 81.9948 149.039 79.1579 149.528 76.2231C150.115 73.1905 150.653 70.3047 151.142 67.5656C151.632 64.8264 152.072 62.3319 152.463 60.0819C152.854 57.8319 153.197 56.12 153.49 54.9461C154.273 50.9352 155.104 47.0711 155.985 43.3537C156.865 39.5385 157.843 35.7233 158.92 31.9081C159.409 30.6364 159.751 29.4625 159.947 28.3864C160.24 27.2125 160.68 26.2342 161.267 25.4516C161.072 24.3756 160.68 23.544 160.093 22.9571C159.604 22.2723 159.36 21.2451 159.36 19.8756C159.849 19.6799 160.142 19.1908 160.24 18.4082C160.436 17.5278 160.729 16.843 161.121 16.3539C161.61 15.7669 162.246 15.3267 163.028 15.0332C163.811 14.7397 164.691 14.3484 165.67 13.8593C166.159 13.3702 166.55 12.7343 166.843 11.9517C167.137 11.1691 167.577 10.5822 168.164 10.1908C167.381 10.3865 166.843 10.4843 166.55 10.4843C166.648 9.99519 166.99 9.75063 167.577 9.75063C168.164 9.65281 168.702 9.45715 169.191 9.16368C169.191 9.16368 169.24 9.11476 169.338 9.01694C169.338 8.91911 169.387 8.82129 169.485 8.72347C169.974 8.42999 170.512 8.23434 171.099 8.13651C171.686 7.94086 172.224 7.74521 172.713 7.54956C172.713 7.25608 172.811 7.10934 173.006 7.10934C173.593 6.71804 174.229 6.52238 174.914 6.52238C175.599 6.42456 176.284 6.27782 176.968 6.08217V5.78869C176.968 5.78869 177.115 5.69087 177.409 5.49522C177.996 5.49522 178.436 5.44631 178.729 5.34848C179.121 5.25065 179.659 5.10391 180.343 4.90826C180.441 4.90826 180.49 4.85935 180.49 4.76153C180.49 4.56587 180.588 4.46805 180.784 4.46805C180.881 4.46805 181.077 4.51696 181.371 4.61479C181.762 4.61479 182.006 4.56588 182.104 4.46805C182.398 4.17457 182.642 4.07675 182.838 4.17457C183.034 4.17457 183.474 4.17457 184.159 4.17457C184.256 4.17457 184.305 4.12566 184.305 4.02784C184.403 3.83218 184.55 3.73436 184.746 3.73436C186.115 3.53871 187.778 3.19632 189.735 2.70719C191.789 2.12023 193.648 1.68002 195.311 1.38655C196.191 1.28872 196.974 1.28872 197.658 1.38655C198.441 1.48437 199.273 1.48437 200.153 1.38655C200.055 1.38655 200.055 1.33763 200.153 1.23981C200.251 1.04415 200.349 0.946327 200.447 0.946327H204.408C204.8 0.946327 205.093 1.04415 205.289 1.23981C205.582 1.33763 205.974 1.38655 206.463 1.38655C207.05 1.48437 207.686 1.53328 208.37 1.53328C209.153 1.53328 209.838 1.58219 210.425 1.68002C211.11 1.77784 211.745 1.97349 212.332 2.26697C212.919 2.56045 213.408 3.04958 213.8 3.73436C213.311 3.93001 213.164 4.17457 213.359 4.46805C213.653 4.6637 213.604 4.81044 213.213 4.90826C213.115 5.10391 212.773 5.34848 212.186 5.64196C211.696 5.83761 211.403 5.59305 211.305 4.90826C211.012 5.00609 210.914 5.00609 211.012 4.90826C211.11 4.71262 211.207 4.56588 211.305 4.46805C211.501 4.2724 211.599 4.12566 211.599 4.02784C211.696 3.83218 211.55 3.73436 211.158 3.73436C203.039 3.24523 195.604 3.63653 188.854 4.90826C182.202 6.08217 175.794 7.64738 169.631 9.60389C169.925 9.70172 170.218 9.79954 170.512 9.89737C170.805 9.9952 171.197 9.94628 171.686 9.75063C171.881 9.65281 172.028 9.55498 172.126 9.45716C172.224 9.35933 172.371 9.31042 172.566 9.31042C173.153 9.31042 173.593 9.35933 173.887 9.45716C174.278 9.55498 174.669 9.84846 175.061 10.3376C180.539 8.67455 186.702 7.3539 193.55 6.37565C200.495 5.29957 207.637 5.25066 214.974 6.22891ZM219.816 18.9952C220.207 19.093 220.648 19.093 221.137 18.9952C221.332 18.8973 221.479 18.7995 221.577 18.7017C221.675 18.6038 221.821 18.5549 222.017 18.5549C222.506 18.5549 222.897 18.6038 223.191 18.7017C223.582 18.7017 223.974 18.9462 224.365 19.4354C229.061 18.0658 234.294 17.1365 240.066 16.6473C245.935 16.0604 251.903 15.2289 257.968 14.1528C258.653 13.9571 259.289 13.9571 259.876 14.1528C260.56 14.2506 261.245 14.3484 261.93 14.4463C262.419 15.8158 262.566 17.5278 262.37 19.5821C262.272 21.5386 261.93 23.2016 261.343 24.5712C259.582 24.0821 257.821 23.9843 256.06 24.2777C254.3 24.5712 252.588 24.8158 250.925 25.0114C247.305 25.2071 243.539 25.5984 239.626 26.1853C235.713 26.6745 231.946 27.1636 228.327 27.6527C227.544 31.0766 226.713 34.5005 225.832 37.9244C224.952 41.2505 224.12 44.7722 223.338 48.4896C226.957 48.0004 230.479 47.707 233.903 47.6091C237.327 47.4135 240.946 47.2178 244.762 47.0222C244.762 47.5113 244.908 47.8048 245.202 47.9026C245.495 47.9026 245.74 48.0983 245.935 48.4896C246.033 48.6852 246.033 49.0276 245.935 49.5167C245.838 49.908 246.033 50.0059 246.522 49.8102C246.522 50.9841 246.376 51.9135 246.082 52.5982C246.082 52.6961 245.3 52.8917 243.734 53.1852C242.169 53.4787 240.457 53.8211 238.599 54.2124C236.74 54.5058 235.028 54.7993 233.463 55.0928C231.897 55.2884 231.115 55.4352 231.115 55.533C231.213 55.6308 232.044 55.6308 233.609 55.533C235.175 55.4352 236.887 55.2884 238.745 55.0928C240.702 54.8971 242.463 54.7504 244.028 54.6526C245.593 54.5548 246.425 54.5548 246.522 54.6526C246.816 54.9461 246.914 55.4352 246.816 56.12C243.001 56.9026 238.745 57.5384 234.05 58.0276C229.452 58.4189 224.805 59.2993 220.109 60.6689C219.425 63.0167 218.691 65.8047 217.908 69.0329C217.126 72.2612 216.343 75.6362 215.561 79.1579C214.876 82.5818 214.191 86.0057 213.506 89.4296C212.821 92.7556 212.235 95.6904 211.745 98.2339C211.256 99.7991 210.816 101.315 210.425 102.783C210.131 104.25 209.887 105.815 209.691 107.478C209.495 108.554 209.446 109.679 209.544 110.853C209.74 112.027 209.593 113.152 209.104 114.228C207.539 114.228 205.729 114.082 203.675 113.788C201.718 113.397 200.006 112.81 198.539 112.027C198.343 111.929 198.148 111.881 197.952 111.881C197.756 111.783 197.61 111.636 197.512 111.44C197.023 110.853 196.631 109.924 196.338 108.652C196.338 108.554 196.387 108.408 196.485 108.212C196.582 108.016 196.582 107.87 196.485 107.772H196.191H195.898C195.702 105.815 195.751 103.663 196.044 101.315C196.338 98.8697 196.631 96.7665 196.925 95.0056L197.365 91.3372L197.512 91.1904C197.61 91.0926 197.707 90.9459 197.805 90.7502C197.805 90.5546 197.756 90.3589 197.658 90.1633C197.658 89.8698 197.707 89.6741 197.805 89.5763C198.099 88.0111 198.49 85.9079 198.979 83.2666C199.566 80.6253 200.153 77.8862 200.74 75.0492C201.327 72.1144 201.914 69.3264 202.501 66.6851C203.088 64.0438 203.577 61.8917 203.968 60.2286C204.066 59.5439 203.919 58.9569 203.528 58.4678C203.235 57.9786 202.843 57.5384 202.354 57.1471C201.865 56.658 201.425 56.1689 201.033 55.6797C200.642 55.1906 200.544 54.6037 200.74 53.9189L201.18 49.8102C201.18 49.7124 201.474 49.6146 202.061 49.5167C202.648 49.4189 203.235 49.3211 203.822 49.2233C204.506 49.0276 205.142 48.8809 205.729 48.783C206.316 48.6852 206.61 48.5874 206.61 48.4896C207.001 46.8265 207.392 45.2613 207.783 43.7939C208.175 42.3266 208.615 40.7613 209.104 39.0983C209.495 38.0222 209.789 36.9461 209.985 35.8701C210.278 34.794 210.718 33.9135 211.305 33.2288C211.11 32.2505 210.767 31.4679 210.278 30.881C209.789 30.294 209.544 29.4136 209.544 28.2397C210.033 28.044 210.327 27.6038 210.425 26.919C210.523 26.1364 210.767 25.5006 211.158 25.0114C211.648 24.4245 212.235 24.0332 212.919 23.8375C213.702 23.544 214.533 23.1527 215.414 22.6636C215.805 22.3701 216.099 22.0277 216.294 21.6364C216.49 21.1473 216.734 20.6582 217.028 20.1691L219.816 18.9952ZM263.74 91.7774C263.936 92.2665 264.18 92.3154 264.474 91.9241C264.767 91.5328 265.061 91.3372 265.354 91.3372C265.55 91.3372 265.745 91.2883 265.941 91.1904C266.235 90.9948 266.577 90.7991 266.968 90.6035C267.164 90.4078 267.653 90.1633 268.436 89.8698C269.218 89.4785 269.756 89.2339 270.05 89.1361C270.441 88.9404 270.686 88.7937 270.784 88.6959C270.784 88.6959 270.832 88.5981 270.93 88.4024C270.93 88.3046 270.979 88.2557 271.077 88.2557C271.566 88.06 272.055 87.9133 272.544 87.8154C273.033 87.7176 273.523 87.5709 274.012 87.3752C274.012 87.3752 274.061 87.3263 274.158 87.2285C274.648 87.2285 275.088 87.1307 275.479 86.935C275.87 86.7394 276.36 86.5437 276.947 86.3481C277.044 86.3481 277.044 86.2992 276.947 86.2013C276.947 86.1035 277.044 86.0546 277.24 86.0546C277.338 85.9568 277.436 85.9568 277.533 86.0546C278.512 85.6633 279.686 85.2231 281.055 84.7339C282.425 84.2448 283.892 84.0003 285.457 84.0003C285.555 84.1959 285.702 84.3426 285.898 84.4405C286.093 84.4405 286.24 84.5872 286.338 84.8807C286.338 84.7829 286.142 84.8318 285.751 85.0274C285.36 85.2231 285.408 85.3209 285.898 85.3209C286.191 85.7122 286.729 85.8589 287.512 85.7611C288.294 85.5655 288.832 85.6633 289.126 86.0546C288.93 86.5437 289.077 86.7394 289.566 86.6415C290.055 86.5437 290.3 86.7394 290.3 87.2285C290.3 87.3263 290.398 87.522 290.593 87.8154C290.887 88.0111 291.18 88.3046 291.474 88.6959C291.669 88.8915 291.816 89.0872 291.914 89.2828C292.109 89.3807 292.256 89.5274 292.354 89.723C292.354 89.8209 292.452 90.0654 292.648 90.4567C292.941 90.848 292.941 91.1415 292.648 91.3372C292.745 91.8263 292.55 92.1687 292.061 92.3643C291.669 92.56 291.278 92.7556 290.887 92.9513C290.593 93.1469 290.251 93.3426 289.859 93.5382C289.468 93.7339 289.126 93.9295 288.832 94.1252C288.637 94.223 288.441 94.2719 288.245 94.2719C288.05 94.2719 287.805 94.3698 287.512 94.5654C287.316 94.6632 287.169 94.81 287.071 95.0056C286.974 95.1035 286.876 95.1524 286.778 95.1524C286.387 95.348 285.995 95.4948 285.604 95.5926C285.213 95.6904 284.87 95.8371 284.577 96.0328C284.479 96.0328 284.43 96.0817 284.43 96.1795C284.43 96.2774 284.332 96.3263 284.137 96.3263C284.039 96.3263 283.941 96.3752 283.843 96.473C283.745 96.5708 283.648 96.6198 283.55 96.6198C282.767 97.1089 281.887 97.598 280.908 98.0871C280.028 98.4784 279.099 98.9187 278.12 99.4078C278.023 99.5056 277.876 99.5545 277.68 99.5545C277.485 99.5545 277.289 99.6523 277.093 99.848C276.995 99.9458 276.898 100.093 276.8 100.288C276.702 100.386 276.555 100.484 276.36 100.582C275.088 101.364 273.767 102.147 272.398 102.93C271.126 103.614 269.756 104.348 268.289 105.131C268.093 105.228 267.947 105.326 267.849 105.424C267.849 105.424 267.751 105.473 267.555 105.571L267.262 105.864C267.066 105.962 266.822 106.158 266.528 106.451C266.332 106.647 266.088 106.745 265.794 106.745C265.697 106.745 265.55 106.794 265.354 106.891C265.256 106.989 265.11 107.087 264.914 107.185C264.718 107.283 264.523 107.429 264.327 107.625C264.131 107.723 263.838 107.772 263.447 107.772C263.447 107.87 263.398 107.968 263.3 108.065C263.202 108.163 263.104 108.212 263.006 108.212C262.713 108.31 262.371 108.457 261.979 108.652L261.539 109.093C261.441 109.19 261.343 109.337 261.246 109.533C260.463 109.728 259.729 109.728 259.044 109.533C258.457 109.337 257.822 109.093 257.137 108.799C256.55 108.408 255.963 107.968 255.376 107.478C254.789 106.989 254.251 106.598 253.762 106.304C252.197 105.913 250.876 105.473 249.8 104.984C248.724 104.397 247.99 103.468 247.599 102.196V101.315C247.11 100.924 247.012 99.9947 247.305 98.5274C247.599 96.9621 247.843 95.6415 248.039 94.5654C248.626 89.6741 249.506 84.7829 250.68 79.8916C251.756 75.0003 252.881 70.3536 254.055 65.9514C254.251 65.4623 254.349 64.9732 254.349 64.484C254.349 63.8971 254.447 63.3591 254.642 62.8699C254.642 62.7721 254.691 62.7232 254.789 62.7232C254.985 62.7232 255.082 62.6254 255.082 62.4297C255.082 62.1362 255.082 61.9895 255.082 61.9895C255.18 61.8917 255.278 61.7449 255.376 61.5493C255.474 61.158 255.523 60.7667 255.523 60.3754C255.621 59.9841 255.767 59.5439 255.963 59.0547C256.256 58.1743 256.599 57.0982 256.99 55.8265C257.479 54.5547 257.968 53.4298 258.457 52.4515C258.751 51.9624 258.996 51.2776 259.191 50.3972C259.387 49.4189 259.582 48.4407 259.778 47.4624L259.925 47.3157C259.925 47.3157 259.974 47.2178 260.072 47.0222C260.072 46.7287 260.072 46.4352 260.072 46.1418C260.072 45.8483 260.169 45.457 260.365 44.9678C260.365 44.87 260.414 44.8211 260.512 44.8211C260.61 44.8211 260.659 44.7233 260.659 44.5276C260.659 43.3537 260.854 42.0331 261.246 40.5657C261.343 40.4679 261.392 40.4189 261.392 40.4189C261.49 40.4189 261.539 40.3211 261.539 40.1255V39.832C261.637 39.6363 261.686 39.4407 261.686 39.245C261.686 38.9516 261.735 38.6092 261.832 38.2179C261.832 38.0222 261.93 37.5331 262.126 36.7505C262.224 36.5548 262.273 36.4081 262.273 36.3103C262.371 36.1146 262.468 35.919 262.566 35.7233C262.566 35.0385 262.615 34.5005 262.713 34.1092C262.713 33.8157 262.811 33.2777 263.006 32.4951C263.006 32.4951 263.104 32.4462 263.3 32.3483C263.398 32.3483 263.447 32.2994 263.447 32.2016C263.544 31.6146 263.544 31.0766 263.447 30.5875C263.447 30.0005 263.544 29.4625 263.74 28.9734C263.74 28.8755 263.789 28.8755 263.887 28.9734C263.985 28.9734 264.034 28.8755 264.034 28.6799C264.034 28.1908 264.034 27.8973 264.034 27.7995C264.131 27.6038 264.18 27.2614 264.18 26.7723C264.18 26.2832 264.327 25.7451 264.62 25.1582C264.62 25.0603 264.718 24.7179 264.914 24.131C264.914 23.8375 265.012 23.2995 265.207 22.5169C265.403 21.7343 265.599 21.0984 265.794 20.6093C265.892 20.3158 265.99 20.0223 266.088 19.7288C266.284 19.3375 266.43 18.9951 266.528 18.7017C266.528 18.0169 266.626 17.5278 266.822 17.2343C266.919 16.7452 267.066 16.0115 267.262 15.0332C267.457 14.055 267.702 13.1745 267.995 12.3919C268.093 12.0006 268.191 11.6093 268.289 11.218C268.485 10.8267 268.68 10.3865 268.876 9.89737C269.072 9.40824 269.169 8.96802 269.169 8.57672C269.267 8.08759 269.365 7.59847 269.463 7.10934C269.463 6.91369 269.61 6.76695 269.903 6.66913C270.197 6.5713 270.294 6.37565 270.197 6.08217C270.784 5.88652 271.37 5.93543 271.957 6.22891C272.544 6.52239 273.082 6.81587 273.572 7.10934C273.669 7.30499 273.767 7.54956 273.865 7.84303C274.061 8.13651 274.256 8.33216 274.452 8.42998C274.648 8.42998 274.794 8.38107 274.892 8.28325C274.99 8.0876 275.137 8.13651 275.332 8.42998C275.43 8.42998 275.43 8.52781 275.332 8.72347C275.332 8.91911 275.332 9.06585 275.332 9.16368C275.528 9.26151 275.724 9.40824 275.919 9.60389C276.213 9.70172 276.408 9.89737 276.506 10.1908C276.506 10.2887 276.555 10.4843 276.653 10.7778C276.751 10.9735 276.8 11.1691 276.8 11.3648C276.898 11.4626 277.044 11.5604 277.24 11.6582C277.533 11.6582 277.68 11.7071 277.68 11.805C277.876 12.0006 277.925 12.1963 277.827 12.3919C277.729 12.4897 277.729 12.6365 277.827 12.8321C277.925 13.0278 277.974 13.1256 277.974 13.1256C278.072 13.0278 278.072 13.0767 277.974 13.2723C278.072 13.5658 278.169 13.7615 278.267 13.8593C278.365 13.9571 278.463 14.1528 278.561 14.4463C278.658 14.8376 278.658 15.2778 278.561 15.7669C278.463 16.1582 278.414 16.6473 278.414 17.2343C278.023 19.9734 277.533 22.8103 276.947 25.7451C276.457 28.6799 275.919 31.5657 275.332 34.4027C274.941 36.457 274.55 38.5603 274.158 40.7124C273.865 42.7668 273.572 44.7722 273.278 46.7287C273.082 47.5113 272.985 48.1961 272.985 48.783C272.985 49.2722 272.838 49.908 272.544 50.6906H272.398C272.3 50.6906 272.251 50.7885 272.251 50.9841C272.153 51.3754 272.104 51.7178 272.104 52.0113C272.202 52.2069 272.202 52.5004 272.104 52.8917V53.6254C271.811 53.9189 271.566 54.7015 271.37 55.9732C271.175 57.1471 270.979 58.0276 270.784 58.6145C270.686 59.1036 270.637 59.446 270.637 59.6417C270.637 59.7395 270.637 60.0819 270.637 60.6689C270.637 60.8645 270.539 60.9623 270.343 60.9623C270.245 60.9623 270.197 61.0112 270.197 61.1091C270.001 61.5982 269.903 62.1851 269.903 62.8699C269.903 63.4569 269.805 64.0927 269.61 64.7775C269.61 64.8753 269.561 64.9243 269.463 64.9243C269.463 64.9243 269.463 65.0221 269.463 65.2177C269.169 66.2938 268.876 67.5656 268.582 69.0329C268.289 70.4025 268.044 71.6742 267.849 72.8481C267.653 73.8264 267.457 74.7068 267.262 75.4894C267.066 76.272 266.87 77.2014 266.675 78.2775C266.577 78.4731 266.479 78.6688 266.381 78.8644C266.381 79.0601 266.332 79.2557 266.235 79.4514C266.235 79.647 266.186 79.7448 266.088 79.7448C265.99 79.7448 265.941 79.7938 265.941 79.8916C265.745 80.6742 265.599 81.5057 265.501 82.3861C265.403 83.1687 265.256 84.0003 265.061 84.8807C264.865 85.8589 264.62 86.935 264.327 88.1089C264.131 89.2828 263.936 90.5057 263.74 91.7774ZM274.012 10.1908C274.012 9.99519 274.061 9.84845 274.158 9.75063C274.354 9.55498 274.256 9.35933 273.865 9.16368C273.865 9.35933 273.816 9.55498 273.718 9.75063C273.62 9.94628 273.718 10.093 274.012 10.1908ZM275.332 87.9622C274.843 88.2557 274.354 88.5002 273.865 88.6959C273.474 88.8915 273.033 88.9894 272.544 88.9894C271.957 89.2828 271.419 89.5763 270.93 89.8698C270.441 90.0654 269.952 90.31 269.463 90.6035C269.267 90.6035 269.12 90.7013 269.023 90.897C269.023 91.0926 269.023 91.2883 269.023 91.4839C267.555 92.1687 266.088 92.8046 264.62 93.3915C263.153 93.8806 261.881 94.81 260.805 96.1795C261.881 95.8861 263.006 95.2502 264.18 94.2719C265.452 93.2937 266.479 92.7067 267.262 92.5111C267.555 92.5111 267.8 92.4622 267.995 92.3643C268.289 92.2665 268.534 92.2176 268.729 92.2176C269.023 92.0219 269.267 91.8752 269.463 91.7774C269.659 91.5817 269.854 91.4839 270.05 91.4839C270.343 91.2883 270.588 91.0926 270.784 90.897C271.077 90.7013 271.37 90.6035 271.664 90.6035C272.251 90.2122 272.74 89.9676 273.131 89.8698C273.523 89.6741 274.012 89.3807 274.599 88.9894C275.186 88.9894 275.724 88.8915 276.213 88.6959C276.408 88.5981 276.604 88.5002 276.8 88.4024C276.995 88.3046 277.24 88.1578 277.533 87.9622C277.925 87.6687 278.463 87.4241 279.148 87.2285C279.735 86.8372 280.126 86.6415 280.321 86.6415C281.104 86.2502 281.936 86.0546 282.816 86.0546C283.696 85.9568 284.235 85.7122 284.43 85.3209C282.767 85.3209 281.153 85.6633 279.588 86.3481C278.12 87.0328 276.702 87.5709 275.332 87.9622ZM300.389 113.788C299.215 113.984 298.433 113.886 298.041 113.495C297.748 113.006 297.112 112.712 296.134 112.614C295.938 112.125 295.449 111.881 294.666 111.881C293.884 111.881 293.346 111.636 293.052 111.147C293.346 108.995 293.59 106.989 293.786 105.131C293.982 103.174 294.177 101.071 294.373 98.8208V97.9404C294.471 97.7447 294.52 97.5491 294.52 97.3534C294.52 97.06 294.617 96.6198 294.813 96.0328C294.813 95.935 294.813 95.7882 294.813 95.5926C294.715 95.3969 294.715 95.2991 294.813 95.2991C295.009 95.1035 295.107 94.9078 295.107 94.7122C295.107 94.4187 295.107 94.1252 295.107 93.8317C295.204 93.4404 295.351 92.9024 295.547 92.2176C295.742 91.435 295.889 90.7991 295.987 90.31C296.28 88.647 296.525 86.9839 296.721 85.3209C297.014 83.6579 297.405 81.9948 297.895 80.3318C299.558 72.4079 301.465 64.533 303.617 56.7069C305.867 48.783 308.117 40.957 310.367 33.2288C309.487 34.0114 308.9 34.8429 308.606 35.7233C308.411 36.5059 308.068 37.3864 307.579 38.3646C307.579 38.4624 307.481 38.5114 307.286 38.5114C307.188 38.5114 307.139 38.6092 307.139 38.8048C307.041 39.294 306.699 39.9298 306.112 40.7124C305.623 41.3972 305.378 42.2287 305.378 43.207C304.791 43.1092 304.351 43.207 304.058 43.5005C303.862 43.6961 303.52 43.8428 303.03 43.9407C303.128 44.6255 302.933 45.0168 302.443 45.1146C301.954 45.2124 301.514 45.1146 301.123 44.8211C301.123 44.1363 300.976 43.8428 300.683 43.9407C300.487 43.9407 300.389 43.5494 300.389 42.7668C300.389 42.6689 300.438 42.5222 300.536 42.3265C300.634 42.0331 300.732 41.7885 300.829 41.5929C300.829 41.495 300.78 41.3483 300.683 41.1526C300.683 40.957 300.732 40.8592 300.829 40.8592C301.221 40.6635 301.465 40.1255 301.563 39.245C301.661 38.3646 301.856 37.5331 302.15 36.7505C302.15 36.6527 302.199 36.6038 302.297 36.6038C302.297 36.6038 302.346 36.5548 302.443 36.457C303.03 34.794 303.862 32.9353 304.938 30.881C304.938 30.7831 304.889 30.6364 304.791 30.4407C304.791 30.2451 304.84 30.1473 304.938 30.1473H305.231C305.329 30.0494 305.329 29.9516 305.231 29.8538C305.231 29.6581 305.231 29.5114 305.231 29.4136C305.427 29.4136 305.525 29.4136 305.525 29.4136C305.818 28.9244 305.965 28.4842 305.965 28.0929C305.965 27.6038 306.112 27.1636 306.405 26.7723C306.503 26.6745 306.552 26.4788 306.552 26.1853C306.65 25.794 306.748 25.5984 306.846 25.5984C307.041 25.4027 307.188 25.1092 307.286 24.7179L307.726 23.544C308.02 23.544 308.166 23.544 308.166 23.544C308.264 23.4462 308.264 23.3484 308.166 23.2506C308.068 23.0549 308.068 22.9082 308.166 22.8103H308.606C308.606 22.7125 308.558 22.5658 308.46 22.3701C308.46 22.1745 308.509 22.0767 308.606 22.0767C308.998 21.7832 309.34 21.343 309.634 20.756C310.025 20.0712 310.367 19.3865 310.661 18.7017C311.052 18.0169 311.492 17.381 311.981 16.7941C312.471 16.2071 313.009 15.7669 313.596 15.4734C313.791 15.3756 313.938 15.2289 314.036 15.0332C314.134 14.8376 314.28 14.7397 314.476 14.7397H314.623H314.769C315.161 14.6419 315.356 14.7397 315.356 15.0332C315.748 14.8376 315.992 14.9354 316.09 15.3267C316.188 15.718 316.433 16.0115 316.824 16.2071C316.824 16.4028 316.873 16.5495 316.971 16.6473C316.971 16.7452 317.019 16.8919 317.117 17.0876C317.313 17.0876 317.46 16.9897 317.558 16.7941C317.753 16.5984 317.949 16.5495 318.144 16.6473C318.34 16.843 318.536 17.0386 318.731 17.2343C318.927 17.4299 319.172 17.6256 319.465 17.8212C319.661 18.0169 319.856 18.2125 320.052 18.4082C320.248 18.506 320.492 18.5549 320.786 18.5549C320.981 18.6528 321.275 18.9462 321.666 19.4354C322.057 19.9245 322.351 20.3158 322.547 20.6093C322.644 20.7071 322.742 20.8049 322.84 20.9028C323.036 20.9028 323.182 21.0006 323.28 21.1962C323.476 21.294 323.476 21.4408 323.28 21.6364C323.182 21.8321 323.182 21.9788 323.28 22.0767C323.769 22.3701 323.916 22.6636 323.721 22.9571C323.525 23.2506 323.574 23.7397 323.867 24.4245C323.965 24.8158 324.014 25.1582 324.014 25.4516C324.014 25.7451 323.965 26.2832 323.867 27.0658C323.672 28.1418 323.476 29.2179 323.28 30.294C323.182 31.3701 322.987 32.4951 322.693 33.669C322.498 35.0385 322.155 36.3592 321.666 37.6309C321.275 38.8048 320.932 39.9787 320.639 41.1526C320.443 41.9352 320.248 42.6689 320.052 43.3537C319.954 44.0385 319.807 44.7722 319.612 45.5548C319.514 46.1418 319.269 46.7776 318.878 47.4624C318.585 48.1472 318.34 48.783 318.144 49.37C317.949 50.0548 317.802 50.7885 317.704 51.5711C317.704 52.2558 317.606 52.9406 317.411 53.6254C317.215 54.0167 317.117 54.3591 317.117 54.6526C317.117 54.9461 317.019 55.2884 316.824 55.6797H316.677C316.579 55.6797 316.53 55.7776 316.53 55.9732V57.1471C315.943 57.5384 315.552 58.5167 315.356 60.0819C315.259 61.5493 315.112 62.7721 314.916 63.7504C314.916 63.8482 314.818 63.8971 314.623 63.8971C314.427 63.8971 314.329 63.9949 314.329 64.1906C314.329 64.2884 314.329 64.484 314.329 64.7775C314.427 65.071 314.378 65.2667 314.183 65.3645H314.036H313.889C313.693 65.7558 313.596 66.1471 313.596 66.5384C313.596 66.8319 313.547 67.1742 313.449 67.5656C312.568 70.9894 311.639 74.7068 310.661 78.7177C309.683 82.6307 308.802 86.2013 308.02 89.4296C307.53 90.0165 307.579 90.5057 308.166 90.897C308.851 91.1904 309.096 91.7774 308.9 92.6578C307.628 95.1035 306.503 97.6958 305.525 100.435C304.645 103.174 303.764 105.962 302.884 108.799C302.492 109.679 302.15 110.56 301.856 111.44C301.661 112.321 301.172 113.103 300.389 113.788ZM321.96 24.7179C321.764 25.3049 321.666 25.7451 321.666 26.0386C321.666 26.2342 321.715 26.5277 321.813 26.919C321.813 26.919 321.715 27.0169 321.519 27.2125L321.373 27.3592C321.373 27.9462 321.422 28.3864 321.519 28.6799C321.422 28.8755 321.324 29.0712 321.226 29.2668C321.226 29.3647 321.177 29.5114 321.079 29.7071C320.981 29.9027 320.981 30.1473 321.079 30.4407C321.275 30.6364 321.324 30.832 321.226 31.0277C321.128 31.1255 321.079 31.2233 321.079 31.3212V31.7614C320.884 31.957 320.786 32.2505 320.786 32.6418C320.884 33.0331 320.884 33.3266 320.786 33.5222C320.688 34.0114 320.639 34.4516 320.639 34.8429C320.737 35.1364 320.688 35.4788 320.492 35.8701C320.492 36.0657 320.492 36.2614 320.492 36.457C320.59 36.5548 320.541 36.6527 320.346 36.7505C320.15 36.9461 320.101 37.044 320.199 37.044C320.394 37.044 320.443 37.1418 320.346 37.3374C320.346 37.8266 320.248 38.2179 320.052 38.5114C319.954 38.8048 319.807 39.1961 319.612 39.6853C319.514 39.7831 319.514 39.9298 319.612 40.1255C319.71 40.3211 319.71 40.5168 319.612 40.7124C319.612 41.0059 319.514 41.2505 319.318 41.4461C319.221 41.5439 319.172 41.7885 319.172 42.1798C318.878 42.9624 318.585 43.7939 318.291 44.6744C318.096 45.457 317.9 46.2396 317.704 47.0222C317.606 47.4135 317.558 47.7559 317.558 48.0494C317.558 48.3428 317.509 48.5874 317.411 48.783C317.215 48.9787 317.117 49.2233 317.117 49.5167C317.117 49.7124 317.068 49.908 316.971 50.1037C316.971 50.2015 316.873 50.5439 316.677 51.1309C316.384 51.7178 316.139 52.158 315.943 52.4515C315.748 53.1363 315.552 53.9678 315.356 54.9461C315.161 55.2395 315.014 55.5819 314.916 55.9732C314.818 56.3645 314.721 56.658 314.623 56.8537C314.231 57.9297 313.84 58.8591 313.449 59.6417C313.155 60.3265 313.106 61.158 313.302 62.1362C314.183 59.8862 315.014 57.5873 315.797 55.2395C316.677 52.8917 317.411 50.7396 317.998 48.783C318.096 48.5874 318.193 48.3917 318.291 48.1961C318.389 47.9026 318.438 47.6091 318.438 47.3157C318.536 47.2178 318.536 47.0711 318.438 46.8754C318.438 46.582 318.487 46.3374 318.585 46.1418C318.585 45.6526 318.682 45.2613 318.878 44.9678C319.074 44.5765 319.172 44.2342 319.172 43.9407C319.367 43.4515 319.563 42.7179 319.759 41.7396V41.4461V41.2994C320.248 39.5385 320.639 37.6798 320.932 35.7233C321.324 33.7668 321.617 32.006 321.813 30.4407C321.813 29.9516 321.813 29.6092 321.813 29.4136C321.911 29.1201 321.96 28.8755 321.96 28.6799C322.057 28.5821 322.009 28.4353 321.813 28.2397C321.715 28.044 321.666 27.8484 321.666 27.6527C321.764 27.4571 321.862 27.2614 321.96 27.0658C322.057 26.8701 322.106 26.6745 322.106 26.4788C322.009 26.381 321.96 25.9897 321.96 25.3049C322.057 24.9136 322.106 24.5223 322.106 24.131C322.106 23.6419 322.204 23.2016 322.4 22.8103C322.302 22.6147 322.204 22.419 322.106 22.2234C322.106 22.0277 322.106 22.0767 322.106 22.3701C321.813 22.8593 321.666 23.3484 321.666 23.8375C321.764 24.2288 321.862 24.5223 321.96 24.7179ZM315.987 82.8263C316.085 82.2394 316.183 82.2394 316.28 82.8263C316.378 83.4133 316.427 83.8046 316.427 84.0003C316.329 84.3916 316.183 84.4894 315.987 84.2937C315.791 84.0981 315.791 83.6089 315.987 82.8263ZM315.693 84.7339C316.183 85.2231 316.329 85.7611 316.134 86.3481C315.938 86.935 315.84 87.4731 315.84 87.9622C315.742 89.1361 315.693 90.31 315.693 91.4839C315.596 92.56 315.498 93.7828 315.4 95.1524C315.4 95.4458 315.449 95.7882 315.547 96.1795C315.547 96.473 315.547 96.8154 315.547 97.2067C315.547 97.4024 315.498 97.598 315.4 97.7937C315.302 97.8915 315.253 98.0871 315.253 98.3806C315.155 99.4567 315.204 100.484 315.4 101.462C315.498 102.343 315.547 103.321 315.547 104.397C315.645 104.788 315.596 105.033 315.4 105.131C315.204 105.131 315.107 105.033 315.107 104.837C314.715 101.022 314.666 97.5491 314.96 94.4187C315.253 91.2883 315.498 88.06 315.693 84.7339ZM324.645 49.6635C325.036 49.7613 325.085 50.1037 324.791 50.6906C324.498 51.1798 324.449 51.6689 324.645 52.158C325.134 51.6689 325.427 51.0819 325.525 50.3972C325.721 49.6146 325.916 48.832 326.112 48.0494C326.503 46.7776 326.797 45.5059 326.992 44.2341C327.286 42.8646 327.677 41.495 328.166 40.1255C328.264 39.7342 328.362 39.3918 328.46 39.0983C328.558 38.8048 328.655 38.5114 328.753 38.2179C328.949 37.7287 329.096 37.2885 329.193 36.8972C329.291 36.5059 329.389 36.1146 329.487 35.7233C329.683 34.9407 329.878 34.1581 330.074 33.3755C330.367 32.4951 330.612 31.6636 330.808 30.881C330.905 30.7831 330.905 30.6364 330.808 30.4407C330.71 30.2451 330.71 30.0984 330.808 30.0005H331.248C331.443 29.5114 331.541 29.0712 331.541 28.6799C331.541 28.1908 331.59 27.6038 331.688 26.919C331.688 26.8212 331.737 26.7723 331.835 26.7723C332.03 26.7723 332.128 26.6745 332.128 26.4788C332.128 26.381 332.128 26.0875 332.128 25.5984C332.128 25.0114 332.226 24.6201 332.422 24.4245H332.862C332.96 24.0332 332.96 23.6419 332.862 23.2506C332.862 22.8593 332.911 22.419 333.009 21.9299C333.106 21.8321 333.204 21.8321 333.302 21.9299C333.4 21.9299 333.449 21.8321 333.449 21.6364C333.449 21.4408 333.547 21.2451 333.742 21.0495C333.938 20.8538 333.938 20.6093 333.742 20.3158C334.525 20.218 335.014 20.3158 335.21 20.6093C335.503 20.8049 335.992 20.8538 336.677 20.756C336.873 20.5604 337.068 20.3647 337.264 20.1691C337.46 19.9734 337.802 20.0223 338.291 20.3158C338.682 20.3158 338.829 20.1201 338.731 19.7288C338.634 19.3375 338.829 19.1908 339.318 19.2886C339.807 19.1908 340.15 19.2886 340.346 19.5821C340.541 19.8756 340.737 20.1201 340.932 20.3158C340.932 20.7071 341.128 20.8538 341.519 20.756C342.009 20.5604 342.351 20.5604 342.547 20.756C342.644 20.9517 343.085 21.343 343.867 21.9299C344.259 22.3212 344.552 22.7125 344.748 23.1038C345.041 23.4951 345.432 23.7886 345.922 23.9843C345.628 25.3538 345.53 26.7234 345.628 28.0929C345.824 29.4625 346.068 30.9299 346.362 32.4951C346.557 33.082 346.655 33.669 346.655 34.2559C346.753 34.8429 346.851 35.4788 346.949 36.1635H347.095C347.291 36.1635 347.389 36.3103 347.389 36.6038C347.487 37.3864 347.634 38.3646 347.829 39.5385C348.123 40.7124 348.367 41.8374 348.563 42.9135C348.759 43.5005 348.905 44.0874 349.003 44.6744C349.199 45.1635 349.394 45.6526 349.59 46.1418C349.786 46.8265 349.884 47.4624 349.884 48.0494C349.884 48.5385 349.981 49.0765 350.177 49.6635C350.275 50.4461 350.47 51.2776 350.764 52.158C351.057 53.0385 351.302 53.87 351.498 54.6526C351.498 54.8482 351.449 55.1417 351.351 55.533C351.351 55.9243 351.4 56.1689 351.498 56.2667H351.938C352.133 56.7558 352.231 57.3428 352.231 58.0276C352.231 58.6145 352.329 59.2015 352.525 59.7884C352.72 60.8645 353.014 61.9406 353.405 63.0167C353.797 63.9949 354.139 65.071 354.432 66.2449C354.53 66.4406 354.53 66.734 354.432 67.1253C354.335 67.4188 354.383 67.6634 354.579 67.859H354.726H355.019C355.019 68.0547 354.97 68.3482 354.873 68.7395C354.873 69.0329 354.922 69.2775 355.019 69.4732H355.166H355.46C355.655 69.9623 355.753 70.5492 355.753 71.234C355.753 71.9188 355.851 72.5547 356.047 73.1416H356.193C356.389 73.1416 356.487 73.2884 356.487 73.5818C356.682 74.9514 357.074 76.4188 357.661 77.984C358.345 79.5492 358.786 81.1633 358.981 82.8263C359.47 82.3372 359.666 81.7013 359.568 80.9187C359.568 80.1361 359.666 79.2557 359.862 78.2775C360.057 76.9079 360.302 75.147 360.595 72.9949C360.987 70.7449 361.329 68.7395 361.623 66.9786C361.818 66.196 361.916 65.5601 361.916 65.071C362.014 64.484 362.112 63.7993 362.21 63.0167C362.21 62.9188 362.161 62.7721 362.063 62.5764C362.063 62.3808 362.112 62.283 362.21 62.283C362.307 62.1851 362.405 61.8917 362.503 61.4025C362.699 60.9134 362.845 60.3754 362.943 59.7884C363.041 59.2015 363.139 58.6634 363.237 58.1743C363.335 57.6852 363.432 57.2939 363.53 57.0004L364.411 52.158C364.704 50.7885 364.949 49.5167 365.144 48.3428C365.438 47.1689 365.731 45.8972 366.025 44.5276C366.123 44.332 366.269 43.9407 366.465 43.3537C366.465 43.2559 366.416 43.1092 366.318 42.9135C366.318 42.7179 366.367 42.5711 366.465 42.4733C366.661 42.2776 366.71 42.1798 366.612 42.1798C366.612 42.082 366.661 41.9352 366.758 41.7396C366.758 41.5439 366.807 41.3483 366.905 41.1526C367.003 40.957 367.052 40.7124 367.052 40.4189C367.248 40.0277 367.394 39.6364 367.492 39.245C367.492 39.1472 367.59 38.8048 367.786 38.2179C367.786 38.0222 367.834 37.8266 367.932 37.6309C368.03 37.4353 368.079 37.1907 368.079 36.8972C368.275 36.5059 368.421 36.1146 368.519 35.7233C368.519 35.2342 368.568 34.8429 368.666 34.5494C368.666 34.3538 368.666 34.1581 368.666 33.9625C368.764 33.7668 368.862 33.5223 368.959 33.2288C369.155 32.8375 369.302 32.4462 369.4 32.0549C369.4 31.8592 369.498 31.4679 369.693 30.881C369.693 30.5875 369.791 30.1962 369.987 29.7071C370.28 29.1201 370.525 28.5821 370.72 28.0929C371.796 24.4734 372.97 20.756 374.242 16.9408C375.514 13.1256 377.03 9.60389 378.791 6.37565C379.084 6.47347 379.329 6.62021 379.525 6.81587C379.72 6.91369 379.867 7.06043 379.965 7.25607C380.063 7.3539 380.209 7.40282 380.405 7.40282C380.601 7.40282 380.845 7.30499 381.139 7.10934C381.53 7.40282 381.775 7.50064 381.872 7.40282C382.068 7.30499 382.215 7.15825 382.313 6.9626C382.411 6.66912 382.508 6.42456 382.606 6.22891C382.802 5.93543 383.095 5.83761 383.487 5.93544C383.487 6.42457 383.731 6.62021 384.22 6.52238C384.709 6.42456 385.052 6.52239 385.247 6.81587C385.737 7.30499 386.275 7.98977 386.862 8.8702C387.546 9.75063 388.231 10.5332 388.916 11.218C388.622 12.7832 388.329 14.3484 388.035 15.9136C387.742 17.4789 387.4 19.093 387.008 20.756C387.008 21.0495 386.91 21.4408 386.715 21.9299C386.519 22.3212 386.421 22.7614 386.421 23.2506C386.421 23.6419 386.421 23.9843 386.421 24.2777C386.421 24.5712 386.324 25.0114 386.128 25.5984C386.128 25.6962 386.079 25.7451 385.981 25.7451C385.883 25.7451 385.834 25.8429 385.834 26.0386C385.834 26.5277 385.834 26.8701 385.834 27.0658C385.834 27.2614 385.737 27.6038 385.541 28.0929C385.443 28.2886 385.394 28.5331 385.394 28.8266C385.394 29.1201 385.345 29.3647 385.247 29.5603C385.15 29.756 385.101 30.0005 385.101 30.294C385.101 30.5875 385.003 30.881 384.807 31.1744C384.807 31.4679 384.66 32.0549 384.367 32.9353C384.171 33.7179 384.025 34.3538 383.927 34.8429C383.829 35.0385 383.78 35.1853 383.78 35.2831C383.878 35.3809 383.927 35.5277 383.927 35.7233C383.829 35.919 383.78 36.1635 383.78 36.457C383.78 36.7505 383.731 37.044 383.633 37.3374C383.242 38.8048 382.802 40.6635 382.313 42.9135C381.824 45.0657 381.383 47.0711 380.992 48.9298C379.329 57.1471 377.715 65.5601 376.15 74.1688C374.584 82.7774 373.117 91.5328 371.748 100.435C371.65 100.924 371.503 101.462 371.307 102.049C371.209 102.538 371.112 103.027 371.014 103.516C370.916 104.201 370.867 104.837 370.867 105.424C370.965 106.011 370.965 106.598 370.867 107.185C370.867 107.283 370.769 107.332 370.574 107.332C370.476 107.332 370.427 107.429 370.427 107.625C370.427 108.506 370.329 109.484 370.133 110.56C370.036 111.538 369.987 112.565 369.987 113.641C369.987 114.424 370.084 115.304 370.28 116.283C370.476 117.261 370.476 118.141 370.28 118.924C369.498 119.022 368.715 119.022 367.932 118.924C367.248 118.826 366.563 118.679 365.878 118.484V118.337C365.878 118.337 365.78 118.239 365.585 118.044C365.095 118.044 364.508 118.044 363.824 118.044C363.237 118.044 362.992 117.652 363.09 116.87C362.796 117.065 362.552 117.457 362.356 118.044C361.867 118.239 361.623 118.092 361.623 117.603C361.72 117.114 361.525 116.87 361.036 116.87C360.84 116.87 360.449 116.772 359.862 116.576C359.373 116.381 358.981 116.234 358.688 116.136C358.492 115.94 358.394 115.647 358.394 115.256C358.492 114.864 358.443 114.571 358.248 114.375C357.954 114.179 357.807 113.788 357.807 113.201C357.71 113.103 357.661 112.957 357.661 112.761C357.758 112.565 357.758 112.467 357.661 112.467C357.367 112.272 357.172 111.832 357.074 111.147C357.074 110.462 357.074 109.679 357.074 108.799C357.074 107.919 357.074 107.038 357.074 106.158C357.172 105.277 357.22 104.544 357.22 103.957C357.318 103.272 357.074 102.93 356.487 102.93C355.9 102.93 355.606 102.636 355.606 102.049C355.313 102.049 355.117 102 355.019 101.902C355.019 101.707 354.922 101.511 354.726 101.315L353.845 100.435C353.65 100.141 353.552 99.8969 353.552 99.7013C353.65 99.4078 353.601 99.1143 353.405 98.8208C353.307 98.6252 353.161 98.4784 352.965 98.3806C352.769 98.2828 352.623 98.136 352.525 97.9404C352.329 97.6469 352.231 97.4024 352.231 97.2067C352.231 97.0111 352.182 96.7176 352.085 96.3263C351.791 96.3263 351.644 96.1795 351.644 95.8861C351.449 95.2991 351.204 94.81 350.911 94.4187C350.715 93.9295 350.47 93.3915 350.177 92.8046C349.981 92.3154 349.835 91.7285 349.737 91.0437C349.639 90.2611 349.394 89.6252 349.003 89.1361C348.807 88.9404 348.661 88.5491 348.563 87.9622C348.367 87.6687 348.172 87.2774 347.976 86.7883C347.878 86.2992 347.731 85.7122 347.536 85.0274C347.34 84.4405 346.998 83.56 346.509 82.3861C346.019 81.2122 345.579 80.1361 345.188 79.1579C343.818 75.3427 342.547 71.4786 341.373 67.5656C340.297 63.5547 339.465 59.4949 338.878 55.3863C339.563 56.1689 340.003 57.0493 340.199 58.0276C340.492 59.0058 340.786 59.9841 341.079 60.9623C341.471 60.571 341.568 60.0819 341.373 59.4949C341.177 58.8102 341.03 58.2232 340.932 57.7341C340.835 57.245 340.737 56.7069 340.639 56.12C340.639 55.4352 340.541 54.7993 340.346 54.2124C340.248 54.2124 340.199 54.1634 340.199 54.0656C340.101 54.0656 340.052 53.9678 340.052 53.7721C339.954 53.5765 339.905 53.3808 339.905 53.1852C340.003 52.9895 340.003 52.7939 339.905 52.5982C339.71 51.8156 339.514 50.9841 339.318 50.1037C339.221 49.2233 339.074 48.3428 338.878 47.4624C338.487 47.658 338.242 48.0004 338.144 48.4896C338.047 48.8809 337.9 49.2722 337.704 49.6635C337.704 49.7613 337.704 49.908 337.704 50.1037C337.802 50.2993 337.851 50.4461 337.851 50.5439C337.362 51.033 336.971 51.8645 336.677 53.0385C336.481 54.1145 336.286 55.1906 336.09 56.2667C336.09 56.3645 335.992 56.4134 335.797 56.4134C335.699 56.4134 335.65 56.5113 335.65 56.7069C335.65 56.8047 335.65 57.0004 335.65 57.2939C335.748 57.4895 335.797 57.6363 335.797 57.7341C335.601 57.9297 335.405 58.3699 335.21 59.0547C335.014 59.6417 334.818 60.1797 334.623 60.6689V60.9623V61.2558C334.623 61.3536 334.672 61.4025 334.769 61.4025C334.476 61.696 334.28 62.283 334.182 63.1634C334.085 63.946 333.938 64.7286 333.742 65.5112C333.742 65.609 333.644 65.658 333.449 65.658C333.351 65.658 333.302 65.7558 333.302 65.9514C333.302 66.8319 333.058 67.9079 332.568 69.1797C332.177 70.4514 331.884 71.6253 331.688 72.7014C331.688 73.5818 331.639 74.2666 331.541 74.7557C331.443 75.2449 331.346 75.6851 331.248 76.0764C331.15 76.4677 331.052 76.9079 330.954 77.397C330.856 77.4949 330.808 77.6416 330.808 77.8372C330.905 78.0329 330.954 78.1796 330.954 78.2775C330.465 78.6688 330.172 79.5492 330.074 80.9187C329.976 82.1905 329.829 83.3644 329.634 84.4405C329.242 86.2992 328.851 88.1578 328.46 90.0165C328.068 91.8752 327.726 93.8317 327.433 95.8861C327.433 96.0817 327.433 96.3263 327.433 96.6198C327.53 96.8154 327.53 97.0111 327.433 97.2067C327.433 97.4024 327.384 97.6469 327.286 97.9404C327.286 98.136 327.237 98.5763 327.139 99.261L327.286 99.9947C326.992 100.288 326.797 100.777 326.699 101.462C326.601 102.049 326.503 102.734 326.405 103.516C326.405 104.299 326.308 105.082 326.112 105.864C326.014 106.549 325.721 107.136 325.231 107.625C325.036 107.429 324.693 107.429 324.204 107.625C323.715 107.821 323.373 107.821 323.177 107.625V107.185C322.884 107.185 322.541 107.234 322.15 107.332C321.759 107.429 321.465 107.283 321.27 106.891C319.998 107.478 318.677 107.576 317.308 107.185C317.014 106.891 316.867 106.598 316.867 106.304C316.867 106.011 316.818 105.62 316.721 105.131H316.574C316.378 105.131 316.28 105.033 316.28 104.837C316.28 104.641 316.378 104.446 316.574 104.25C316.672 104.054 316.721 103.81 316.721 103.516C316.525 101.658 316.476 99.7991 316.574 97.9404C316.574 96.0817 316.672 94.223 316.867 92.3643C316.965 91.6796 317.014 91.0926 317.014 90.6035C317.014 90.0165 317.063 89.3807 317.161 88.6959H317.308C317.308 88.6959 317.356 88.5981 317.454 88.4024C317.454 88.0111 317.454 87.6687 317.454 87.3752C317.356 86.9839 317.308 86.6415 317.308 86.3481C317.405 86.0546 317.503 85.5165 317.601 84.7339C317.699 83.9513 317.846 83.1687 318.041 82.3861C318.041 81.7992 318.041 81.2611 318.041 80.772C318.041 80.1851 318.09 79.647 318.188 79.1579C318.188 79.0601 318.237 79.0111 318.335 79.0111C318.53 79.0111 318.628 78.9133 318.628 78.7177C318.628 77.0546 318.824 75.4405 319.215 73.8753C319.215 73.6797 319.264 73.1416 319.362 72.2612C319.46 71.3808 319.606 70.5981 319.802 69.9134C319.802 69.8155 319.851 69.7666 319.949 69.7666C320.047 69.7666 320.096 69.6688 320.096 69.4732C320.096 68.1036 320.291 66.6851 320.683 65.2177C321.074 63.7504 321.416 62.3319 321.71 60.9623C322.199 59.0058 322.59 57.0982 322.884 55.2395C323.177 53.283 323.764 51.4243 324.645 49.6635ZM378.938 10.0441C378.742 10.3376 378.595 10.6311 378.497 10.9245C378.497 11.218 378.4 11.5604 378.204 11.9517C378.008 12.7343 377.764 13.6147 377.47 14.593C377.177 15.4734 376.883 16.0604 376.59 16.3539C376.492 16.4517 376.443 16.5984 376.443 16.7941C376.541 16.9897 376.59 17.1365 376.59 17.2343C376.492 17.6256 376.345 17.968 376.15 18.2615C376.052 18.4571 375.954 18.6528 375.856 18.8484C375.856 19.1419 375.807 19.3865 375.709 19.5821C375.612 19.6799 375.563 19.8267 375.563 20.0223C375.465 20.218 375.416 20.3647 375.416 20.4625C375.416 20.4625 375.318 20.5604 375.123 20.756C375.123 20.8538 375.123 21.0006 375.123 21.1962C375.22 21.3919 375.269 21.5386 375.269 21.6364C375.074 22.0277 374.878 22.3701 374.682 22.6636C374.584 22.8593 374.536 23.0549 374.536 23.2506C374.34 23.8375 374.242 24.2288 374.242 24.4245C374.144 24.8158 373.998 25.1092 373.802 25.3049C373.704 25.3049 373.704 25.4027 373.802 25.5984C373.9 25.794 373.9 25.9408 373.802 26.0386C373.606 26.919 373.362 27.7995 373.068 28.6799C372.873 29.4625 372.677 30.1962 372.481 30.881C372.383 31.3701 372.286 31.8103 372.188 32.2016C372.09 32.4951 371.943 32.8375 371.748 33.2288C371.748 33.3266 371.699 33.4244 371.601 33.5222L371.454 33.669C371.258 34.0603 371.161 34.5005 371.161 34.9896C371.258 35.3809 371.258 35.7722 371.161 36.1635C371.161 36.2614 371.112 36.3103 371.014 36.3103C370.916 36.3103 370.818 36.4081 370.72 36.6038C370.72 36.7994 370.623 37.1907 370.427 37.7777C370.231 38.3646 370.084 38.8537 369.987 39.245C369.987 39.5385 369.938 39.9298 369.84 40.4189C369.742 40.7124 369.644 41.1526 369.546 41.7396C369.449 42.2287 369.546 42.62 369.84 42.9135C371.209 36.7505 372.775 30.881 374.536 25.3049C376.394 19.631 378.253 14.006 380.112 8.42998C379.622 8.33216 379.329 8.52781 379.231 9.01694C379.133 9.40824 379.036 9.75063 378.938 10.0441ZM423.34 26.1853C423.438 26.381 423.242 26.5277 422.753 26.6255C422.362 26.6255 421.921 26.6255 421.432 26.6255C421.041 26.6255 420.796 26.5766 420.699 26.4788C420.601 26.381 420.992 26.2832 421.872 26.1853C422.068 26.1853 422.313 26.2342 422.606 26.3321C422.9 26.3321 423.144 26.2832 423.34 26.1853ZM446.231 23.1038C446.035 22.9082 445.742 22.8593 445.351 22.9571C444.959 22.9571 444.666 22.9571 444.47 22.9571C443.785 22.8593 443.15 22.8593 442.563 22.9571C442.66 22.9571 442.66 23.006 442.563 23.1038C442.465 23.2016 442.367 23.2506 442.269 23.2506C441.878 23.3484 441.389 23.3484 440.802 23.2506C440.215 23.1527 439.628 23.1527 439.041 23.2506C438.845 23.3484 438.601 23.4462 438.307 23.544C438.111 23.6419 437.72 23.6908 437.133 23.6908H435.079C435.177 23.6908 435.177 23.7886 435.079 23.9843C435.079 24.0821 434.981 24.131 434.785 24.131C434.394 24.131 433.905 24.131 433.318 24.131C432.829 24.0332 432.291 24.0332 431.704 24.131C431.508 24.131 431.264 24.1799 430.97 24.2777C430.775 24.3756 430.383 24.4245 429.796 24.4245C427.84 24.6201 425.785 24.8158 423.633 25.0114C421.481 25.2071 419.378 25.4027 417.324 25.5984C416.932 26.0875 416.688 26.6255 416.59 27.2125C416.492 27.7016 416.345 28.2397 416.15 28.8266L409.253 50.6906C409.449 50.9841 409.742 51.0819 410.133 50.9841C410.623 50.8863 410.965 50.7885 411.161 50.6906C411.552 50.6906 411.943 50.7396 412.334 50.8374C412.726 50.8374 413.117 50.7885 413.508 50.6906C414.291 50.6906 415.074 50.6417 415.856 50.5439C416.639 50.4461 417.421 50.3972 418.204 50.3972C418.693 50.3972 419.182 50.4461 419.671 50.5439C420.161 50.6417 420.699 50.6906 421.285 50.6906C422.166 50.7885 422.997 50.8374 423.78 50.8374C424.563 50.8374 425.394 50.9352 426.275 51.1309C426.666 51.2287 427.008 51.3265 427.302 51.4243C427.693 51.4243 427.987 51.4732 428.182 51.5711C428.28 51.5711 428.329 51.7178 428.329 52.0113C428.427 52.2069 428.525 52.3048 428.622 52.3048C428.916 52.5004 429.209 52.6472 429.503 52.745C429.894 52.745 430.139 52.9895 430.237 53.4787L430.53 54.6526L431.41 55.0928C431.508 55.2884 431.557 55.6308 431.557 56.12C431.557 56.5113 431.606 56.9026 431.704 57.2939C431.9 58.1743 431.997 59.2015 431.997 60.3754C432.095 61.4515 431.9 62.5275 431.41 63.6036C430.921 63.7014 430.53 63.7014 430.237 63.6036C430.041 63.408 429.845 63.2123 429.65 63.0167C429.454 62.7232 429.258 62.4786 429.063 62.283C428.867 62.0873 428.574 61.9895 428.182 61.9895C423.976 61.7938 420.112 61.9406 416.59 62.4297C413.166 62.9188 409.595 63.3101 405.878 63.6036C404.313 68.4949 402.894 73.5329 401.623 78.7177C400.449 83.8046 399.226 88.9404 397.954 94.1252C402.356 93.6361 406.856 93.2448 411.454 92.9513C416.052 92.6578 420.454 92.6578 424.66 92.9513L427.889 93.3915C428.476 93.4893 429.014 93.6361 429.503 93.8317C429.992 93.9295 430.481 94.0274 430.97 94.1252C432.046 94.3209 433.171 94.7122 434.345 95.2991C435.617 95.7882 436.938 96.1795 438.307 96.473C438.992 97.5491 439.236 98.9676 439.041 100.728C438.845 102.391 438.454 103.663 437.867 104.544C436.889 104.641 436.497 104.152 436.693 103.076C436.106 103.468 435.862 103.223 435.959 102.343C432.927 101.853 429.943 101.707 427.008 101.902C424.074 102 421.139 102.147 418.204 102.343C418.008 102.343 417.862 102.343 417.764 102.343C417.666 102.245 417.519 102.245 417.324 102.343C416.834 102.44 416.003 102.587 414.829 102.783C413.655 102.881 412.579 102.978 411.601 103.076C408.862 103.37 406.22 103.712 403.677 104.103C401.133 104.397 398.492 104.788 395.753 105.277C394.97 105.473 394.286 105.62 393.699 105.718C393.21 105.815 392.574 105.962 391.791 106.158C391.693 106.158 391.547 106.158 391.351 106.158C391.155 106.06 391.057 106.06 391.057 106.158C390.764 106.549 390.03 106.794 388.856 106.891C387.78 106.989 386.851 107.136 386.068 107.332L385.922 107.478C385.824 107.576 385.726 107.625 385.628 107.625C385.139 107.821 384.503 107.968 383.72 108.065C382.938 108.065 382.302 108.31 381.813 108.799C381.324 108.603 381.03 108.359 380.932 108.065L380.199 107.332C380.101 107.136 380.052 106.989 380.052 106.891C380.052 106.794 379.954 106.647 379.759 106.451C379.465 105.962 379.172 105.571 378.878 105.277C378.487 104.984 378.193 104.495 377.998 103.81C377.9 103.614 377.851 103.321 377.851 102.93C377.753 102.44 377.655 102.245 377.557 102.343C377.753 102.147 377.9 101.853 377.998 101.462C378.096 100.973 378.438 100.533 379.025 100.141C379.514 99.7502 380.15 99.4078 380.932 99.1143C381.617 98.8208 382.351 98.5763 383.134 98.3806C384.014 98.185 384.748 97.9404 385.335 97.6469C385.53 94.5165 385.824 91.3372 386.215 88.1089C386.606 84.8807 387.047 81.7014 387.536 78.5709C387.633 78.0818 387.731 77.5927 387.829 77.1035C388.025 76.6144 388.172 76.1253 388.269 75.6362L389.883 67.7123C389.981 67.5166 389.981 67.321 389.883 67.1253C389.883 66.8319 390.03 66.6362 390.324 66.5384C390.128 65.8536 389.835 65.7558 389.443 66.2449C389.052 66.734 388.807 66.9786 388.71 66.9786C388.22 67.0764 387.878 67.0764 387.682 66.9786C387.585 66.7829 387.34 66.6362 386.949 66.5384C386.46 66.0493 385.97 65.4623 385.481 64.7775C385.09 64.0927 385.139 63.3101 385.628 62.4297C385.139 61.9406 384.65 61.5004 384.161 61.1091C383.672 60.7178 383.378 60.0819 383.28 59.2015C383.574 58.908 383.867 58.6145 384.161 58.321C384.454 58.0276 384.845 57.6852 385.335 57.2939C386.313 56.6091 387.487 56.071 388.856 55.6797C390.226 55.2884 391.595 54.8482 392.965 54.3591C393.258 53.7721 393.454 53.1852 393.552 52.5982C393.748 52.0113 393.943 51.3754 394.139 50.6906L395.019 48.0494L396.193 44.9678C396.193 44.87 396.144 44.7722 396.046 44.6744C396.046 44.4787 396.095 44.332 396.193 44.2341C396.389 44.0385 396.487 43.7939 396.487 43.5005C396.487 43.207 396.585 42.8157 396.78 42.3265C396.878 42.1309 396.976 42.082 397.074 42.1798C397.171 42.1798 397.22 42.082 397.22 41.8863V41.4461L397.954 39.0983C398.052 39.0005 398.15 39.0005 398.248 39.0983C398.345 39.0983 398.394 39.0005 398.394 38.8048C398.394 38.5114 398.394 38.3157 398.394 38.2179C398.492 38.0222 398.639 37.8266 398.835 37.6309L400.008 34.5494C400.008 34.4516 400.057 34.4027 400.155 34.4027C400.253 34.4027 400.302 34.3049 400.302 34.1092C400.4 33.3266 400.791 32.4462 401.476 31.4679C402.161 30.4897 402.552 29.4625 402.65 28.3864C401.574 28.2886 400.644 28.4353 399.862 28.8266C399.177 29.1201 398.296 29.2179 397.22 29.1201C397.22 29.4136 397.123 29.6581 396.927 29.8538C396.829 29.9516 396.78 30.1962 396.78 30.5875C396.291 30.3918 395.753 30.0494 395.166 29.5603C394.677 29.0712 394.237 28.5331 393.845 27.9462C393.356 27.2614 392.916 26.5766 392.525 25.8919C392.133 25.2071 392.036 24.4734 392.231 23.6908C392.427 22.6147 393.307 21.7343 394.873 21.0495C396.438 20.3647 398.15 19.7288 400.008 19.1419C402.552 18.3593 404.949 17.6745 407.199 17.0876C409.449 16.4028 411.943 15.7669 414.682 15.1799C416.247 14.7886 417.862 14.4463 419.525 14.1528C421.286 13.8593 423.144 13.5658 425.101 13.2723C426.47 13.0767 427.791 12.93 429.063 12.8321C430.432 12.7343 431.948 12.5876 433.612 12.3919C434.492 12.2941 435.323 12.1963 436.106 12.0984C436.987 12.0006 438.112 12.0006 439.481 12.0984C439.97 12.0984 440.41 12.1474 440.802 12.2452C441.291 12.343 441.78 12.3919 442.269 12.3919C442.758 12.4897 443.247 12.4897 443.736 12.3919C444.226 12.2941 444.715 12.2941 445.204 12.3919C445.204 12.4897 445.253 12.5876 445.351 12.6854C445.351 12.7832 445.448 12.8321 445.644 12.8321C446.329 12.8321 446.769 12.93 446.965 13.1256C447.16 13.2234 447.601 13.3702 448.285 13.5658C449.068 14.8376 449.655 16.2071 450.046 17.6745C450.535 19.1419 450.389 20.6093 449.606 22.0767C449.508 22.2723 449.41 22.3701 449.313 22.3701C449.215 22.2723 449.166 22.3212 449.166 22.5169C449.166 22.8103 449.019 23.006 448.726 23.1038C448.53 23.2016 448.383 23.3973 448.285 23.6908L446.231 23.1038ZM448.432 24.2777C448.236 24.4734 448.236 24.7179 448.432 25.0114C447.356 24.4245 446.329 24.1799 445.351 24.2777C444.372 24.3756 443.247 24.5223 441.976 24.7179C441.78 24.7179 441.389 24.669 440.802 24.5712C440.215 24.4734 439.823 24.5223 439.628 24.7179C439.432 24.9136 438.65 25.0603 437.28 25.1582C436.008 25.256 434.932 25.3538 434.052 25.4516C432.389 25.6473 430.677 25.8429 428.916 26.0386C427.155 26.2342 425.443 26.2832 423.78 26.1853C423.878 25.6962 424.22 25.5495 424.807 25.7451C425.394 25.9408 425.932 25.9897 426.421 25.8919C429.845 25.5005 433.171 25.1092 436.4 24.7179C439.726 24.3266 443.101 24.0332 446.525 23.8375C446.525 23.7397 446.476 23.6908 446.378 23.6908L448.432 24.2777ZM408.813 56.7069C408.324 56.7069 408.079 56.7558 408.079 56.8537C408.079 56.8537 408.177 56.9026 408.373 57.0004C408.666 57.0982 408.959 57.1471 409.253 57.1471C409.546 57.0493 409.693 56.9026 409.693 56.7069H408.813ZM388.269 61.2558C388.661 60.9623 389.15 60.8156 389.737 60.8156C390.324 60.7178 390.764 60.4732 391.057 60.0819C390.568 60.0819 389.883 60.2286 389.003 60.5221C388.123 60.7178 387.878 60.9623 388.269 61.2558ZM396.78 85.1742C396.878 84.9785 396.878 84.7339 396.78 84.4405C396.682 84.0492 396.585 84.0981 396.487 84.5872C396.487 84.7829 396.487 85.0274 396.487 85.3209C396.585 85.6144 396.682 85.5655 396.78 85.1742ZM395.313 90.6035C395.117 91.3861 394.873 92.1687 394.579 92.9513C394.383 93.7339 394.53 94.3698 395.019 94.8589C395.117 94.4676 395.215 93.8806 395.313 93.098C395.508 92.3154 395.655 91.5328 395.753 90.7502C395.851 89.9676 395.949 89.2828 396.046 88.6959C396.144 88.1089 396.291 87.7176 396.487 87.522C396.585 87.4241 396.633 87.2285 396.633 86.935C396.633 86.6415 396.585 86.397 396.487 86.2013C396.389 86.0057 396.291 85.9079 396.193 85.9079C396.193 85.81 396.193 85.9568 396.193 86.3481L395.313 90.6035Z" fill="black"/>
<path d="M460.473 74.1518C460.207 74.4414 459.847 74.7717 459.395 75.1425C458.944 75.5132 458.376 75.8666 457.692 76.2027C457.02 76.5271 456.226 76.7994 455.311 77.0195C454.396 77.2513 453.341 77.3671 452.148 77.3671C450.734 77.3671 449.46 77.147 448.324 76.7067C447.189 76.2664 446.215 75.6001 445.404 74.7079C444.593 73.8158 443.968 72.6918 443.527 71.3362C443.099 69.9689 442.884 68.3641 442.884 66.5218V62.2462C442.884 60.4039 443.093 58.8049 443.51 57.4493C443.927 56.082 444.518 54.9465 445.283 54.0427C446.059 53.1389 446.997 52.4669 448.098 52.0266C449.211 51.5863 450.456 51.3661 451.835 51.3661C453.272 51.3661 454.512 51.5457 455.554 51.9049C456.597 52.2641 457.466 52.8029 458.161 53.5213C458.857 54.2281 459.39 55.1087 459.76 56.1631C460.131 57.2059 460.369 58.411 460.473 59.7782H455.502C455.433 58.9787 455.317 58.3125 455.155 57.7795C455.004 57.2465 454.784 56.8236 454.494 56.5107C454.216 56.1863 453.869 55.9546 453.451 55.8155C453.046 55.6765 452.559 55.6069 451.991 55.6069C451.319 55.6069 450.734 55.7286 450.236 55.9719C449.738 56.2037 449.321 56.586 448.985 57.119C448.66 57.6404 448.417 58.3241 448.255 59.1699C448.092 60.0042 448.011 61.018 448.011 62.2115V66.5218C448.011 67.7268 448.098 68.7465 448.272 69.5807C448.457 70.415 448.73 71.0986 449.089 71.6316C449.46 72.153 449.923 72.5354 450.479 72.7787C451.036 73.0105 451.69 73.1263 452.443 73.1263C452.895 73.1263 453.278 73.0916 453.59 73.0221C453.915 72.9525 454.187 72.8714 454.407 72.7787C454.639 72.6744 454.824 72.5702 454.963 72.4659C455.114 72.3616 455.242 72.2747 455.346 72.2052V67.5646H451.766V63.7062H460.473V74.1518ZM476.168 71.8402H469.198L467.842 77.0195H462.437L470.345 51.7137H475.02L482.981 77.0195H477.523L476.168 71.8402ZM470.31 67.582H475.038L472.674 58.5616L470.31 67.582ZM492.036 51.7137L496.815 70.0153L501.578 51.7137H508.252V77.0195H503.124V70.1717L503.594 59.6218L498.536 77.0195H495.06L490.002 59.6218L490.472 70.1717V77.0195H485.362V51.7137H492.036ZM525.441 66.0699H517.481V72.7787H526.901V77.0195H512.371V51.7137H526.866V55.9719H517.481V61.9508H525.441V66.0699Z" fill="black"/>
<path d="M51.5579 55.9719H45.301V77.0195H40.1738V55.9719H34.0211V51.7137H51.5579V55.9719ZM72.2405 77.0195H67.1481V66.1916H59.605V77.0195H54.4952V51.7137H59.605V61.9508H67.1481V51.7137H72.2405V77.0195ZM89.4297 66.0699H81.4695V72.7787H90.8896V77.0195H76.3597V51.7137H90.8549V55.9719H81.4695V61.9508H89.4297V66.0699Z" fill="black"/>
</svg>
